<svg width="151" height="37" viewBox="0 0 151 37" fill="none" xmlns="http://www.w3.org/2000/svg">
<path d="M25.6839 13.7886C24.6454 14.9899 23.4815 15.821 22.2553 16.3459C20.0362 17.2955 17.6504 17.2288 15.4503 16.5286C14.6824 16.7294 14.1144 17.1845 13.7388 18.0327C13.1179 19.4354 12.9821 22.127 13.0953 23.6143C13.1972 25.288 12.6747 26.8339 11.6225 28.0951C10.7544 29.1352 9.53134 29.9702 8.00913 30.5075C8.24951 32.345 8.71368 33.6019 9.30786 34.2829C9.85405 34.9084 10.3794 34.858 11.0329 34.3886C12.0553 33.6539 13.1427 32.0052 14.1091 29.4218C14.3119 28.7363 14.9012 27.8396 15.5138 27.4158C16.3587 26.8324 17.3841 26.8662 18.1604 27.5411C18.6282 27.948 19.0128 28.6072 19.2326 29.5112C19.3538 30.0127 19.0227 30.5123 18.4933 30.6271C17.9639 30.7416 17.4365 30.4283 17.3153 29.9268C17.0096 28.669 16.6401 28.4897 16.0825 29.7414C16.6424 32.0366 17.4332 33.5518 18.2862 34.2871C18.9306 34.8424 19.476 34.8541 20.1106 34.2803C20.9508 33.5213 21.7053 31.9428 22.198 29.5173C22.5154 27.7579 21.3875 27.0104 19.9838 26.3657C18.4956 25.8058 16.6981 24.3458 14.9225 21.7441C14.629 21.3113 14.762 20.7349 15.219 20.4571C15.676 20.1793 16.2847 20.305 16.5779 20.738C17.2497 21.7222 20.2688 25.5392 21.762 24.6932C23.0654 23.9539 21.1838 20.4498 20.6858 19.6855C20.4008 19.2485 20.544 18.6755 21.0052 18.4056C21.4665 18.136 22.0719 18.2712 22.3565 18.7081C23.5286 20.5077 25.3127 24.3775 23.0572 26.101C23.889 27.0574 24.3987 28.6212 24.1344 29.8492C23.5601 32.6872 22.5894 34.6144 21.4658 35.6294C20.0935 36.8694 18.3593 36.8697 16.9618 35.6654C16.191 35.0009 15.4762 33.9318 14.8908 32.4673C14.0459 34.0817 13.1274 35.2158 12.2185 35.8688C10.7126 36.9507 9.02433 36.8844 7.79089 35.4715C7.00362 34.5694 6.3969 33.0702 6.08949 30.9891C4.46985 31.2933 3.21813 31.3528 2.33535 31.1673C1.43012 30.977 0.834494 30.5478 0.549491 29.8804C0.295183 29.2853 0.342193 28.5651 0.690847 27.72C1.13987 26.6315 2.15091 25.2171 3.72324 23.4768C2.91357 23.5477 2.25306 23.5312 1.74215 23.4277C0.0471008 23.0837 -0.372607 21.802 0.316117 20.3986C0.768944 19.4766 1.77795 18.2734 3.34245 16.7902C1.27595 16.3468 0.458946 15.4775 0.781359 14.0957C1.02731 13.0412 2.25764 11.7271 4.36931 10.0623C3.26124 9.6823 2.49547 9.12822 2.08104 8.50712C1.31474 7.36017 1.70349 6.09998 2.73818 5.24745C3.85716 4.32511 6.02367 3.64352 9.20568 3.73411C9.01584 2.76368 8.98354 2.00329 9.10868 1.45293C9.48744 -0.213051 11.0095 -0.269203 12.374 0.4006C16.7023 2.52387 19.2176 7.52398 23.739 9.31312C24.3149 8.39233 25.3586 7.8246 26.494 7.8246C28.261 7.8246 29.6945 9.18251 29.6945 10.8559C29.6945 12.8284 27.712 14.2906 25.6839 13.7886Z" fill="#55261B"/>
<path fill-rule="evenodd" clip-rule="evenodd" d="M15.4971 5.21344C13.7495 3.56649 12.4085 2.51378 11.4751 2.05562C11.2794 1.95964 11.1307 1.89725 11.0291 1.86843C10.9298 2.35957 11.0553 3.23876 11.405 4.50599C11.5799 5.1454 11.0114 5.74351 10.3321 5.66269C7.03594 5.37419 4.95631 5.89416 4.03353 6.65479C3.75122 6.88744 3.51627 7.17119 3.74596 7.51556C4.09054 8.03166 5.06307 8.4818 6.68841 8.6574C7.59566 8.75189 7.87834 9.86045 7.14431 10.3468C4.43308 12.3245 2.88844 13.6904 2.70047 14.4968C2.62223 14.8319 3.52718 15.0548 5.56236 15.2072C6.44692 15.2729 6.78448 16.3208 6.11938 16.8509C3.91111 18.7819 2.57266 20.2247 2.10402 21.1789C1.51852 22.3729 5.6129 21.307 6.14545 21.1895C7.12244 20.9739 7.76454 22.1236 7.04811 22.772C4.54985 25.2694 3.04182 27.1452 2.52494 28.398C2.3178 28.9001 2.14983 29.2229 2.76062 29.3513C4.93579 29.8083 8.68801 28.6155 10.0842 26.9426C10.8349 26.0427 11.2072 24.9296 11.1335 23.7162C11.1032 21.7105 11.0906 19.1993 11.9233 17.318C12.6201 15.7438 13.7229 14.9588 15.2448 14.6581C17.884 13.6806 16.01 11.9373 14.8244 10.6749C13.8446 9.57076 13.438 8.46189 13.4822 7.54646C13.539 6.37252 14.2911 5.49452 15.4971 5.21344Z" fill="#925332"/>
<path fill-rule="evenodd" clip-rule="evenodd" d="M17.8881 15.1477C19.0894 15.2733 20.303 15.1356 21.4459 14.6467C22.3492 14.2599 23.2183 13.6504 24.0147 12.7736C23.6264 12.3243 23.372 11.7674 23.308 11.1579C22.8724 11.001 22.44 10.8131 22.005 10.5904C21.1388 10.1463 15.5594 5.20195 15.4429 7.6267C15.376 9.00895 17.6287 10.4629 18.286 12.137C18.6962 13.1817 18.6465 14.258 17.8881 15.1477Z" fill="#E7BD7C"/>
<path fill-rule="evenodd" clip-rule="evenodd" d="M26.4948 9.69143C25.8158 9.69143 25.2656 10.2125 25.2656 10.8557C25.2656 11.4988 25.8158 12.0198 26.4948 12.0198C27.174 12.0198 27.7239 11.4988 27.7239 10.8557C27.7239 10.2125 27.174 9.69143 26.4948 9.69143Z" fill="#925332"/>
<path d="M45.7598 9.13379C46.043 9.13379 46.3018 9.23633 46.5361 9.44141C46.7803 9.63672 46.9023 9.85645 46.9023 10.1006C46.9023 10.2861 46.8535 10.7256 46.7559 11.4189C47.3125 11.3604 47.9424 11.3311 48.6455 11.3311H49.7295C49.9932 11.3213 50.3936 11.292 50.9307 11.2432C51.4775 11.1943 51.9268 11.1699 52.2783 11.1699C52.4443 11.1699 52.6982 11.1748 53.04 11.1846C53.3916 11.1943 53.6455 11.1992 53.8018 11.1992C53.9873 11.1992 54.2656 11.1699 54.6367 11.1113C55.0078 11.0527 55.3105 11.0234 55.5449 11.0234C55.9844 11.0234 56.2676 11.1113 56.3945 11.2871C56.5312 11.4629 56.5996 11.834 56.5996 12.4004C56.5996 12.8496 56.5117 13.2012 56.3359 13.4551C56.1602 13.6992 55.7256 13.8213 55.0322 13.8213C54.7393 13.8213 54.3877 13.7969 53.9775 13.748C53.5674 13.6992 53.2598 13.6699 53.0547 13.6602H51.3701C50.9502 13.6895 50.418 13.7334 49.7734 13.792C49.1387 13.8408 48.6309 13.8799 48.25 13.9092C47.8789 13.9287 47.2881 13.9385 46.4775 13.9385C46.3896 14.9248 46.3018 15.75 46.2139 16.4141C46.126 17.0684 46.0625 17.5518 46.0234 17.8643C45.9941 18.1768 45.9795 18.7383 45.9795 19.5488C46.4482 19.3438 46.917 19.2412 47.3857 19.2412C47.6592 19.2412 48.0596 19.2852 48.5869 19.373C48.8311 19.3926 49.1973 19.4072 49.6855 19.417C50.1738 19.4268 50.5645 19.4561 50.8574 19.5049C51.1504 19.5537 51.5068 19.6807 51.9268 19.8857C52.3467 20.0811 52.8447 20.3789 53.4209 20.7793C54.2217 21.3066 54.8418 21.9023 55.2812 22.5664C55.7207 23.2207 55.9404 24.2363 55.9404 25.6133C55.9404 26.5215 55.7891 27.3271 55.4863 28.0303C55.1934 28.7334 54.8076 29.3438 54.3291 29.8613C53.8311 30.3789 53.3281 30.8086 52.8203 31.1504C52.3223 31.4922 51.6777 31.8975 50.8867 32.3662C50.1934 32.7764 49.583 33.1084 49.0557 33.3623C48.5381 33.626 47.9766 33.8408 47.3711 34.0068C46.7754 34.1729 46.1406 34.2559 45.4668 34.2559C44.7637 34.2559 44.085 34.1777 43.4307 34.0215C42.4541 33.7871 41.6973 33.4502 41.1602 33.0107C40.6328 32.5811 40.3691 32.1611 40.3691 31.751C40.3691 31.4287 40.5156 31.1162 40.8086 30.8135C41.1016 30.501 41.4238 30.3447 41.7754 30.3447C42.0684 30.3447 42.3809 30.4863 42.7129 30.7695C43.0547 31.043 43.3037 31.2139 43.46 31.2822C43.6553 31.3799 44.0947 31.4287 44.7783 31.4287C45.54 31.4287 46.2676 31.3799 46.9609 31.2822C47.6152 31.165 48.4551 30.8232 49.4805 30.2568C50.5156 29.6904 51.4189 28.9873 52.1904 28.1475C52.9619 27.2979 53.3477 26.3994 53.3477 25.4521C53.3477 24.8662 53.1523 24.2852 52.7617 23.709C52.3711 23.1328 51.7656 22.6543 50.9453 22.2734C50.125 21.8926 49.1289 21.7021 47.957 21.7021C47.3223 21.7021 46.6533 21.7656 45.9502 21.8926C45.9502 22.3516 45.96 22.835 45.9795 23.3428C45.999 23.8408 46.0088 24.1436 46.0088 24.251C46.0088 24.417 45.9893 24.6611 45.9502 24.9834C45.8428 25.6279 45.7891 26.0332 45.7891 26.1992C45.7891 26.4336 45.916 26.7852 46.1699 27.2539C46.4238 27.7227 46.5508 28.084 46.5508 28.3379C46.5508 29.1582 46.3604 29.7197 45.9795 30.0225C45.5986 30.3154 45.0762 30.4619 44.4121 30.4619C44.168 30.4619 43.9824 30.335 43.8555 30.0811C43.7285 29.8271 43.665 29.5439 43.665 29.2314C43.665 29.1436 43.6992 29.0361 43.7676 28.9092C43.8359 28.7725 43.8701 28.6699 43.8701 28.6016C43.8701 28.5332 43.7578 28.3721 43.5332 28.1182C43.3184 27.8643 43.2109 27.5469 43.2109 27.166C43.2109 26.9316 43.2842 26.5703 43.4307 26.082C43.5869 25.5938 43.665 25.2666 43.665 25.1006C43.665 24.8857 43.6357 24.5537 43.5771 24.1045C43.5186 23.6455 43.4893 23.2939 43.4893 23.0498C43.4893 19.6514 43.6064 16.7314 43.8408 14.29C43.0205 14.3291 42.3662 14.3926 41.8779 14.4805C41.3994 14.5781 40.9111 14.71 40.4131 14.876C39.9248 15.042 39.4561 15.1689 39.0068 15.2568C38.5479 15.335 37.9277 15.374 37.1465 15.374C36.9805 15.374 36.8486 15.2568 36.751 15.0225C36.7412 14.9248 36.6777 14.8369 36.5605 14.7588C36.4434 14.6709 36.3408 14.627 36.2529 14.627C36.165 14.627 36.1211 14.6562 36.1211 14.7148C36.1211 14.7246 36.1602 14.7734 36.2383 14.8613C36.3066 14.9395 36.3408 15.0127 36.3408 15.0811C36.3408 15.3252 36.2822 15.54 36.165 15.7256C36.0479 15.9111 35.8867 16.0039 35.6816 16.0039C35.1348 16.0039 34.6025 15.8721 34.085 15.6084C33.5674 15.3447 33.3086 14.998 33.3086 14.5684C33.3086 13.9043 33.626 13.4307 34.2607 13.1475C34.8955 12.8545 35.7012 12.6641 36.6777 12.5762C37.6445 12.4883 38.665 12.4004 39.7393 12.3125C40.1885 12.2539 40.7891 12.1514 41.541 12.0049C42.3027 11.8682 43.1914 11.7314 44.207 11.5947C44.2949 11.0967 44.373 10.6572 44.4414 10.2764C44.5098 9.89551 44.6367 9.6123 44.8223 9.42676C45.0078 9.23145 45.3203 9.13379 45.7598 9.13379ZM61.1699 20.0908C62.0586 20.0908 62.6201 20.6279 62.8545 21.7021C63.0889 22.7764 63.2061 24.0264 63.2061 25.4521C63.2061 28.2939 63.2598 29.7148 63.3672 29.7148C63.543 29.7148 63.8945 29.3926 64.4219 28.748C64.959 28.0938 65.4863 27.2051 66.0039 26.082C66.1895 25.6328 66.4385 25.0566 66.751 24.3535C67.0635 23.6406 67.4199 23.0254 67.8203 22.5078C68.2207 21.9902 68.6553 21.7314 69.124 21.7314C69.7393 21.7314 70.1543 21.9316 70.3691 22.332C70.584 22.7324 70.7646 23.4502 70.9111 24.4854C71.0576 25.5107 71.1895 26.2529 71.3066 26.7119C71.4043 27.1318 71.5166 27.6152 71.6436 28.1621C71.7705 28.6992 71.9316 29.1826 72.127 29.6123C72.3223 30.042 72.5518 30.2764 72.8154 30.3154H73.0205C73.3428 30.2764 73.6406 30.1494 73.9141 29.9346C74.1973 29.7197 74.5146 29.4365 74.8662 29.085C75.2275 28.7432 75.4717 28.5332 75.5986 28.4551C75.8135 28.3379 76.0527 28.2793 76.3164 28.2793C76.5605 28.2793 76.751 28.3379 76.8877 28.4551C77.1123 28.6309 77.2246 28.9922 77.2246 29.5391C77.2246 29.7344 77.1123 29.9443 76.8877 30.1689C76.6729 30.3936 76.2432 30.7744 75.5986 31.3115C74.3779 32.2881 73.5674 32.7764 73.167 32.7764C71.8389 32.7764 70.916 32.249 70.3984 31.1943C69.8809 30.1396 69.4756 28.8994 69.1826 27.4736C69.1631 27.376 69.0996 27.1904 68.9922 26.917C68.8945 26.6436 68.8457 26.3066 68.8457 25.9062C68.8457 25.3301 68.8164 25.042 68.7578 25.042C68.6504 25.042 68.3525 25.6523 67.8643 26.873C67.3857 28.084 67.0244 28.8701 66.7803 29.2314C66.0674 30.2861 65.418 31.0771 64.832 31.6045C64.2559 32.1514 63.5869 32.4248 62.8252 32.4248C61.6631 32.4248 61.082 31.7314 61.082 30.3447V28.8799C61.0723 28.4307 61.0576 27.9766 61.0381 27.5176C61.0186 27.0586 61.0039 26.5703 60.9941 26.0527C60.9746 25.5352 60.9648 24.9883 60.9648 24.4121V23.6211C60.9648 23.4648 60.9355 23.2646 60.877 23.0205C60.8184 22.7666 60.7451 22.6396 60.6572 22.6396C60.4814 22.6396 60.3154 22.6934 60.1592 22.8008C60.0029 22.9082 59.7881 23.0938 59.5146 23.3574C59.251 23.6211 59.0166 23.8164 58.8115 23.9434C58.6064 24.0703 58.3818 24.1338 58.1377 24.1338C57.9033 24.1338 57.6494 24.0459 57.376 23.8701C57.1025 23.6846 56.9658 23.4746 56.9658 23.2402C56.9658 22.9277 57.0391 22.6787 57.1855 22.4932C57.3223 22.3076 57.5518 22.1074 57.874 21.8926C58.1963 21.6777 58.416 21.5166 58.5332 21.4092C58.6895 21.2432 58.875 21.0527 59.0898 20.8379C59.3145 20.623 59.5928 20.4473 59.9248 20.3105C60.2568 20.1641 60.6719 20.0908 61.1699 20.0908ZM89.7344 9.88086C89.7344 10.3887 89.4316 10.8232 88.8262 11.1846C88.2207 11.5361 87.5029 11.8389 86.6729 12.0928C85.8428 12.3369 84.9053 12.6201 83.8604 12.9424C83.3232 13.0791 82.6738 13.2451 81.9121 13.4404C81.1504 13.626 80.4473 13.8408 79.8027 14.085C79.168 14.3193 78.8506 14.5586 78.8506 14.8027C78.8506 15.0176 78.9971 15.2129 79.29 15.3887C79.5928 15.5645 80.0957 15.7891 80.7988 16.0625C81.502 16.3262 82.0684 16.5557 82.498 16.751C82.9375 16.9463 83.3086 17.1758 83.6113 17.4395C83.6992 17.5176 83.8359 17.6641 84.0215 17.8789C84.1973 18.084 84.3291 18.2305 84.417 18.3184C84.5537 18.416 84.7246 18.5137 84.9297 18.6113C85.1445 18.7188 85.2861 18.792 85.3545 18.8311C85.6963 19.0068 85.9844 19.2119 86.2188 19.4463C86.4629 19.6807 86.6582 19.9199 86.8047 20.1641C86.9512 20.3984 87.0781 20.6475 87.1855 20.9111C87.3027 21.165 87.415 21.4189 87.5225 21.6729C87.5615 21.7607 87.6738 21.9902 87.8594 22.3613C88.0449 22.7227 88.1768 23.0693 88.2549 23.4014C88.3428 23.7236 88.3867 24.1582 88.3867 24.7051V26.4775C88.3867 27.6494 88.1279 28.6992 87.6104 29.627C87.1025 30.5449 86.4873 31.2529 85.7646 31.751C85.0518 32.2393 84.417 32.4834 83.8604 32.4834C80.9014 32.4834 78.9678 31.5801 78.0596 29.7734C77.5811 28.8359 77.3418 27.8887 77.3418 26.9316C77.3418 26.1211 77.5176 25.374 77.8691 24.6904C78.2305 24.0068 78.7334 23.4502 79.3779 23.0205C80.0225 22.5811 80.7549 22.3125 81.5752 22.2148H82.8936C84.5342 22.5664 85.3545 23.1865 85.3545 24.0752C85.3545 24.3877 85.2568 24.6855 85.0615 24.9688C84.876 25.252 84.6758 25.3936 84.4609 25.3936C84.3145 25.3936 84.041 25.2666 83.6406 25.0127C83.1621 24.7295 82.6445 24.5879 82.0879 24.5879C81.4043 24.5879 80.8623 24.8857 80.4619 25.4814C80.0615 26.0674 79.8613 26.751 79.8613 27.5322C79.8613 28.4307 80.252 29.0605 81.0332 29.4219C81.8145 29.7734 82.6055 29.9492 83.4062 29.9492C84.1582 29.9492 84.7637 29.5635 85.2227 28.792C85.6914 28.0205 85.9258 27.0879 85.9258 25.9941C85.9258 24.793 85.6572 23.7139 85.1201 22.7568C84.5342 21.6924 83.7822 20.8379 82.8643 20.1934C81.9463 19.5488 80.833 18.9189 79.5244 18.3037C78.2158 17.6885 77.2832 17.1709 76.7266 16.751C76.1504 16.3311 75.8623 15.7744 75.8623 15.0811C75.8623 14.1143 76.2773 13.377 77.1074 12.8691C77.9375 12.3613 79.0361 11.8975 80.4033 11.4775C81.9658 10.999 83.5332 10.4863 85.1055 9.93945C86.6777 9.39258 87.6152 9.0752 87.918 8.9873C88.2207 8.88965 88.5576 8.84082 88.9287 8.84082C89.1436 8.84082 89.3291 8.95801 89.4854 9.19238C89.6514 9.42676 89.7344 9.65625 89.7344 9.88086ZM98.4941 21.4971C99.2266 21.4971 99.749 21.5459 100.062 21.6436C100.374 21.7314 100.584 21.9023 100.691 22.1562C100.809 22.4102 100.906 22.8691 100.984 23.5332C101.023 23.9727 101.043 25.0957 101.043 26.9023C101.043 27.0195 101.038 27.2051 101.028 27.459C101.019 27.7031 101.014 27.8838 101.014 28.001C101.014 28.6748 101.058 29.1533 101.146 29.4365C101.233 29.7197 101.438 29.8613 101.761 29.8613C101.985 29.8613 102.239 29.7881 102.522 29.6416C102.806 29.4951 103.045 29.4219 103.24 29.4219C103.533 29.4219 103.782 29.5537 103.987 29.8174C104.202 30.0713 104.31 30.3984 104.31 30.7988C104.31 31.0723 104.173 31.3213 103.899 31.5459C103.636 31.7705 103.284 31.9512 102.845 32.0879C102.405 32.2148 101.956 32.2783 101.497 32.2783C100.296 32.2783 99.5049 31.8828 99.124 31.0918C98.7432 30.291 98.5527 29.1045 98.5527 27.5322C98.5527 27.2783 98.5576 26.8926 98.5674 26.375C98.5771 25.8574 98.582 25.4619 98.582 25.1885C98.582 24.8857 98.5918 24.666 98.6113 24.5293V24.1631C98.5625 23.9678 98.4941 23.8701 98.4062 23.8701C98.0547 23.8701 97.8105 24.085 97.6738 24.5146C97.5371 24.9346 97.4004 25.5498 97.2637 26.3604C97.127 27.0732 96.7656 28.1035 96.1797 29.4512C95.6816 30.584 95.0908 31.3506 94.4072 31.751C93.7334 32.1416 93.1475 32.3369 92.6494 32.3369C91.8877 32.3369 91.292 32.1172 90.8623 31.6777C90.4424 31.2383 90.2324 30.7939 90.2324 30.3447C90.2324 30.0615 90.3691 29.7783 90.6426 29.4951C90.9258 29.2021 91.2627 29.0557 91.6533 29.0557C91.8389 29.0557 91.9902 29.0898 92.1074 29.1582C92.2246 29.2266 92.3467 29.3291 92.4736 29.4658C92.6006 29.6025 92.6982 29.6953 92.7666 29.7441C92.835 29.7832 92.9326 29.8027 93.0596 29.8027C93.333 29.8027 93.6211 29.5098 93.9238 28.9238C94.2266 28.3281 94.4512 27.791 94.5977 27.3125C94.6074 27.2734 94.71 26.8096 94.9053 25.9209C95.1104 25.0322 95.335 24.2852 95.5791 23.6797C95.833 23.0645 96.1992 22.5469 96.6777 22.127C97.1562 21.707 97.7617 21.4971 98.4941 21.4971ZM107.518 30.4619C106.707 30.8037 106.17 30.9746 105.906 30.9746C105.574 30.9746 105.267 30.8574 104.983 30.623C104.71 30.3887 104.573 30.0273 104.573 29.5391C104.573 29.0996 104.637 28.8359 104.764 28.748C104.881 28.6602 105.11 28.6064 105.452 28.5869C105.804 28.5576 106.097 28.4648 106.331 28.3086C105.882 27.4004 105.657 26.2578 105.657 24.8809C105.657 24.1387 105.804 23.46 106.097 22.8447C106.399 22.2197 106.78 21.7314 107.239 21.3799C107.698 21.0186 108.143 20.8379 108.572 20.8379C110.271 21.4043 111.121 22.6641 111.121 24.6172C111.121 25.457 110.979 26.1846 110.696 26.7998C110.423 27.415 109.954 28.0889 109.29 28.8213C109.622 29.1533 110.164 29.4561 110.916 29.7295C111.678 30.0029 112.298 30.1396 112.776 30.1396C113.567 30.1396 114.178 30.0469 114.607 29.8613C115.037 29.666 115.477 29.3926 115.926 29.041C116.385 28.6895 116.775 28.4648 117.098 28.3672C117.195 28.3281 117.332 28.3086 117.508 28.3086C117.693 28.3086 117.825 28.3281 117.903 28.3672C118.323 28.543 118.533 28.7627 118.533 29.0264C118.533 29.29 118.47 29.5293 118.343 29.7441C118.216 29.959 118.055 30.1494 117.859 30.3154C117.664 30.4814 117.43 30.6475 117.156 30.8135C116.883 30.9795 116.731 31.0723 116.702 31.0918C116.683 31.1113 116.497 31.2334 116.146 31.458C115.804 31.6924 115.452 31.8779 115.091 32.0146C114.739 32.1611 114.275 32.2734 113.699 32.3516C113.123 32.4395 112.405 32.4834 111.546 32.4834C110.882 32.4834 110.135 32.2979 109.305 31.9268C108.484 31.5557 107.889 31.0674 107.518 30.4619ZM108.147 27.1367C108.294 26.6582 108.421 26.3311 108.528 26.1553C108.636 25.9697 108.689 25.8184 108.689 25.7012C108.689 25.3691 108.655 24.9297 108.587 24.3828C108.519 23.8359 108.436 23.5625 108.338 23.5625C108.289 23.5625 108.206 23.6943 108.089 23.958C107.981 24.2217 107.894 24.4805 107.825 24.7344V25.6426C107.903 26.1797 108.011 26.6777 108.147 27.1367ZM123.558 21.3799C123.792 21.5166 123.953 21.585 124.041 21.585C124.09 21.585 124.158 21.5752 124.246 21.5557C124.344 21.5361 124.427 21.5264 124.495 21.5264C124.866 21.5264 125.306 21.7656 125.813 22.2441C126.321 22.7129 126.692 23.1523 126.927 23.5625C127.142 23.2598 127.498 22.9766 127.996 22.7129C128.504 22.4395 128.924 22.293 129.256 22.2734C129.695 22.2734 130.071 22.3369 130.384 22.4639C130.696 22.5811 130.853 22.7471 130.853 22.9619C130.853 23.2549 130.789 23.7188 130.662 24.3535C130.545 24.998 130.418 25.4473 130.281 25.7012C130.701 25.0371 131.321 24.7051 132.142 24.7051C132.962 22.9863 134.31 22.127 136.185 22.127C136.604 22.127 136.976 22.2979 137.298 22.6396C137.62 22.9814 137.781 23.3525 137.781 23.7529C137.781 24.1338 137.649 24.417 137.386 24.6025C137.122 24.7881 136.814 24.8809 136.463 24.8809C136.355 24.8809 136.209 24.8369 136.023 24.749C135.848 24.6611 135.711 24.6172 135.613 24.6172C135.281 24.6172 134.949 24.793 134.617 25.1445C134.285 25.4863 134.119 25.96 134.119 26.5654C134.119 27.1904 134.334 27.8496 134.764 28.543C135.203 29.2266 135.73 29.5684 136.346 29.5684C136.561 29.5684 136.868 29.4707 137.269 29.2754C137.679 29.0898 137.981 28.9971 138.177 28.9971C138.45 28.9971 138.699 29.1484 138.924 29.4512C139.061 29.6172 139.129 29.8467 139.129 30.1396C139.119 30.6182 138.904 31.043 138.484 31.4141C138.074 31.7852 137.469 31.9707 136.668 31.9707C136.307 31.9707 136.028 31.9512 135.833 31.9121C134.983 31.7656 134.261 31.4287 133.665 30.9014C133.06 30.3643 132.601 29.7686 132.288 29.1143C131.985 28.46 131.834 27.8789 131.834 27.3711C131.746 27.3125 131.648 27.2832 131.541 27.2832C131.199 27.2832 130.818 27.542 130.398 28.0596C129.979 28.5674 129.69 29.0605 129.534 29.5391C129.515 29.5781 129.456 29.8955 129.358 30.4912C129.271 31.0869 129.114 31.5508 128.89 31.8828C128.675 32.2051 128.318 32.3662 127.82 32.3662C127.508 32.3467 127.215 32.2002 126.941 31.9268C126.668 31.6436 126.531 31.3652 126.531 31.0918C126.531 30.8965 126.663 30.2959 126.927 29.29C126.956 29.1436 127.029 28.9141 127.146 28.6016C127.264 28.2793 127.337 28.0205 127.366 27.8252C127.386 27.7275 127.405 27.5957 127.425 27.4297C127.444 27.2539 127.464 27.127 127.483 27.0488C127.669 26.1406 127.771 25.6865 127.791 25.6865C127.791 25.6865 127.791 25.6914 127.791 25.7012C127.771 25.7402 127.718 25.7988 127.63 25.877C127.552 25.9453 127.425 26.0039 127.249 26.0527C127.132 26.7852 126.956 27.415 126.722 27.9424C126.497 28.4697 126.263 28.8848 126.019 29.1875C125.774 29.4902 125.521 29.749 125.257 29.9639C125.003 30.1885 124.749 30.4082 124.495 30.623C124.358 30.75 124.08 31.0137 123.66 31.4141C123.24 31.8145 122.781 32.1562 122.283 32.4395C121.795 32.7324 121.321 32.8789 120.862 32.8789C120.442 32.8789 120.032 32.7422 119.632 32.4688C119.231 32.1953 119.031 31.7266 119.031 31.0625C119.031 30.5938 119.319 29.9639 119.896 29.1729C120.472 28.3721 121.062 27.7031 121.668 27.166C122.186 26.6973 122.605 26.3115 122.928 26.0088C123.26 25.6963 123.519 25.4668 123.704 25.3203C123.89 25.1738 124.061 25.0713 124.217 25.0127C124.246 24.9932 124.31 24.9688 124.407 24.9395C124.495 24.9004 124.583 24.8516 124.671 24.793C124.554 24.4414 124.334 24.1875 124.012 24.0312C123.689 23.8652 123.377 23.7822 123.074 23.7822C122.889 23.7822 122.688 23.8652 122.474 24.0312C122.269 24.1973 121.893 24.5439 121.346 25.0713C121.307 25.1006 121.097 25.3252 120.716 25.7451C120.335 26.1553 120.037 26.4238 119.822 26.5508C119.607 26.6777 119.324 26.7412 118.973 26.7412C118.582 26.7412 118.333 26.6094 118.226 26.3457C118.118 26.082 118.064 25.7061 118.064 25.2178C118.064 24.915 118.694 24.1826 119.954 23.0205C120.589 22.4736 121.141 22.0439 121.609 21.7314C122.078 21.4189 122.537 21.2627 122.986 21.2627C123.211 21.2627 123.401 21.3018 123.558 21.3799ZM124.847 27.166C124.446 27.4688 123.802 28.0547 122.913 28.9238C122.024 29.7832 121.58 30.335 121.58 30.5791C121.58 30.6279 121.6 30.6523 121.639 30.6523H121.756C121.824 30.6328 121.907 30.5303 122.005 30.3447C122.054 30.2373 122.122 30.1396 122.21 30.0518C122.298 29.9541 122.386 29.8711 122.474 29.8027C122.562 29.7246 122.664 29.6367 122.781 29.5391C123.191 29.1777 123.509 28.8604 123.733 28.5869C123.958 28.3135 124.197 28.0791 124.451 27.8838C124.715 27.6885 124.847 27.4492 124.847 27.166Z" fill="black"/>
</svg>
