<svg width="48" height="27" viewBox="0 0 48 27" fill="none" xmlns="http://www.w3.org/2000/svg">
<path d="M15.6733 2.41064C15.6733 3.2785 16.359 5.01421 17.2406 6.36421C19.3957 9.44993 18.5141 10.1249 14.2039 8.6785C9.20796 7.03922 8.13041 8.58207 11.7549 12.0535C13.3222 13.5964 14.6937 15.1392 14.6937 15.6214C14.6937 16.0071 12.2447 16.3928 9.30592 16.3928C3.52633 16.3928 2.54674 17.4535 5.97531 20.1535L8.13041 21.7928L4.99572 23.0464C3.33041 23.8178 1.95898 24.6856 1.95898 25.1678C1.95898 25.6499 6.36715 26.0356 11.7549 26.0356H21.5508V22.8535C21.5508 17.1642 27.8202 13.0178 32.9141 15.3321C34.8733 16.1999 35.2651 16.1035 35.2651 14.6571C35.1671 11.9571 33.11 9.93207 25.1753 5.39993C16.9467 0.578499 15.6733 0.192785 15.6733 2.41064Z" fill="#262020"/>
<path d="M30.8562 19.1893C30.1705 20.3464 32.0317 21.5036 33.3052 20.7322C34.3828 20.0572 33.6971 18.3214 32.3256 18.3214C31.8358 18.3214 31.2481 18.7072 30.8562 19.1893Z" fill="#262020"/>
<path d="M42.5149 24.2035C41.5353 25.8428 43.7884 27.675 45.1598 26.325C46.3353 25.1678 45.5517 23.1428 44.0823 23.1428C43.5925 23.1428 42.9068 23.625 42.5149 24.2035Z" fill="#262020"/>
</svg>
