<svg width="51" height="29" viewBox="0 0 51 29" fill="none" xmlns="http://www.w3.org/2000/svg">
<path d="M34.3465 2.58923C34.3465 3.52137 33.618 5.38566 32.6812 6.83566C30.3914 10.1499 31.3282 10.8749 35.9078 9.32137C41.2159 7.56066 42.3608 9.2178 38.5098 12.9464C36.8445 14.6035 35.3874 16.2607 35.3874 16.7785C35.3874 17.1928 37.9894 17.6071 41.1118 17.6071C47.2527 17.6071 48.2935 18.7464 44.6506 21.6464L42.3608 23.4071L45.6914 24.7535C47.4608 25.5821 48.918 26.5142 48.918 27.0321C48.918 27.5499 44.2343 27.9642 38.5098 27.9642H28.1016V24.5464C28.1016 18.4357 21.4404 13.9821 16.0282 16.4678C13.9465 17.3999 13.5302 17.2964 13.5302 15.7428C13.6343 12.8428 15.82 10.6678 24.2506 5.79995C32.9935 0.621374 34.3465 0.207088 34.3465 2.58923Z" fill="#262020"/>
<path d="M18.2146 20.6107C18.9432 21.8536 16.9657 23.0964 15.6126 22.2678C14.4677 21.5428 15.1963 19.6786 16.6534 19.6786C17.1738 19.6786 17.7983 20.0928 18.2146 20.6107Z" fill="#262020"/>
<path d="M5.82753 25.9964C6.86834 27.7571 4.47446 29.725 3.01732 28.275C1.76834 27.0321 2.601 24.8571 4.16222 24.8571C4.68263 24.8571 5.4112 25.375 5.82753 25.9964Z" fill="#262020"/>
</svg>
