<svg width="40" height="30" viewBox="0 0 37 20" fill="none" xmlns="http://www.w3.org/2000/svg">
<path d="M12.0826 1.78564C12.0826 2.4285 12.6112 3.71422 13.2909 4.71422C14.9523 6.99993 14.2726 7.49993 10.9498 6.4285C7.09825 5.21422 6.26753 6.35707 9.06177 8.9285C10.2701 10.0714 11.3274 11.2142 11.3274 11.5714C11.3274 11.8571 9.43937 12.1428 7.17377 12.1428C2.71809 12.1428 1.96289 12.9285 4.60609 14.9285L6.26753 16.1428L3.85089 17.0714C2.56705 17.6428 1.50977 18.2856 1.50977 18.6428C1.50977 18.9999 4.90817 19.2856 9.06177 19.2856H16.6138V16.9285C16.6138 12.7142 21.447 9.64279 25.3741 11.3571C26.8845 11.9999 27.1866 11.9285 27.1866 10.8571C27.111 8.85707 25.5251 7.35707 19.408 3.99993C13.0643 0.428501 12.0826 0.142787 12.0826 1.78564Z" fill="#262020"/>
<path d="M23.7874 14.2142C23.2587 15.0714 24.6936 15.9285 25.6754 15.3571C26.5061 14.8571 25.9774 13.5714 24.9202 13.5714C24.5426 13.5714 24.0894 13.8571 23.7874 14.2142Z" fill="#262020"/>
<path d="M32.7745 17.9285C32.0193 19.1428 33.7563 20.5 34.8135 19.5C35.7198 18.6428 35.1156 17.1428 33.9828 17.1428C33.6052 17.1428 33.0766 17.5 32.7745 17.9285Z" fill="#262020"/>
</svg>
